# xmcd
#
# Track frame offsets:
#	150
#	9677
#	16830
#	25670
#	37130
#	50377
#	66447
#	77537
#	90162
#	98672
#	106805
#	116297
#	130345
#	143172
#	157487
#	171932
#	181635
#	193682
#	204300
#	215150
#
# Disc length: 3226 seconds
#
# Revision: 0
# Processed by: cddbd v1.4PL0 Copyright (c) Steve Scherf et al.
# Submitted via: EasyCDDAExtractor 4.6.9.1
#
DISCID=090c9814
DTITLE=Greene, Lorne - On the Ponderosa
DYEAR=1900
DGENRE=Country
TTITLE0=Bonanza
TTITLE1=Ponderosa
TTITLE2=Skip to My Lou
TTITLE3=Ol' Chisholm Trail, The
TTITLE4=Five Card Stud
TTITLE5=Ringo
TTITLE6=Riders in the Sky
TTITLE7=Cool Water
TTITLE8=Whoopi Ti Yi Yo
TTITLE9=Pretty Horses
TTITLE10=Devli's Grin, The
TTITLE11=Man, The
TTITLE12=An Ol Tin Cup
TTITLE13=Sixteen Tons
TTITLE14=Endless Prarie
TTITLE15=Mule Train
TTITLE16=Tumbling Tumbleweeds
TTITLE17=Waco
TTITLE18=My Sons, My Sons
TTITLE19=Saga of the Ponderosa
EXTD=
EXTT0=
EXTT1=
EXTT2=
EXTT3=
EXTT4=
EXTT5=
EXTT6=
EXTT7=
EXTT8=
EXTT9=
EXTT10=
EXTT11=
EXTT12=
EXTT13=
EXTT14=
EXTT15=
EXTT16=
EXTT17=
EXTT18=
EXTT19=
PLAYORDER=
